<?xml version="1.0" encoding="UTF-8" standalone="no"?>
<svg
   width="142"
   height="142"
   viewBox="0 0 142 142"
   fill="none"
   version="1.1"
   id="svg3"
   xmlns="http://www.w3.org/2000/svg"
   xmlns:svg="http://www.w3.org/2000/svg">
  <path
     d="M 75.2325,43.9828 75.2168,60.7881 C 75.2718,83.7159 56.4856,102.4286 33.5431,102.405 24.4289,102.3893 16.1319,99.6264 9.40625,94.7912 21.4668,116.392 44.6058,130.984 70.9111,131 c 35.8279,0 64.8209,-25.887 69.5509,-67.1114 0.636,-5.5337 1.257,-13.226 1.052,-20.5573 C 141.012,25.3565 126.46,10.95302 108.318,11.000115 90.0901,10.976567 75.1775,25.7489 75.2325,43.9828 Z"
     fill="url(#paint0_linear_12737_48775)"
     id="path1"
     style="fill:url(#paint0_linear_12737_48775)" />
  <path
     d="m 33.4998,93.8251 c 18.2512,0 33.0467,-14.7809 33.0467,-33.0141 0,-18.2332 -14.7955,-33.0141 -33.0467,-33.0141 -18.2512,0 -33.046675,14.7809 -33.046675,33.0141 0,18.2332 14.795475,33.0141 33.046675,33.0141 z"
     fill="#0b23a9"
     id="path2" />
  <defs
     id="defs3">
    <linearGradient
       id="paint0_linear_12737_48775"
       x1="40.190102"
       y1="118.752"
       x2="115.575"
       y2="34.902599"
       gradientUnits="userSpaceOnUse"
       gradientTransform="translate(0,11)">
      <stop
         stop-color="#09DBF0"
         id="stop2" />
      <stop
         offset="1"
         stop-color="#0B23A9"
         id="stop3" />
    </linearGradient>
  </defs>
</svg>
